<?xml version="1.0" encoding="UTF-8"?>
<svg version="1.1" xmlns="http://www.w3.org/2000/svg" width="1536" height="576">
<path d="M0 0 C506.88 0 1013.76 0 1536 0 C1536 190.08 1536 380.16 1536 576 C1029.12 576 522.24 576 0 576 C0 385.92 0 195.84 0 0 Z " fill="#FDFDFD" transform="translate(0,0)"/>
<path d="M0 0 C1.59229179 -0.01925285 1.59229179 -0.01925285 3.2167511 -0.03889465 C4.93706795 -0.04997505 4.93706795 -0.04997505 6.69213867 -0.0612793 C8.46230598 -0.07338692 8.46230598 -0.07338692 10.26823425 -0.08573914 C12.76734956 -0.09957719 15.26648375 -0.11030059 17.765625 -0.11816406 C21.58459301 -0.13538301 25.40269681 -0.17927417 29.22143555 -0.22338867 C31.64916356 -0.2335151 34.07689892 -0.24203136 36.50463867 -0.2487793 C37.64544388 -0.26628738 38.78624908 -0.28379547 39.96162415 -0.30183411 C46.00074922 -0.28533726 50.23994572 -0.24727375 54.79760742 4.17700195 C58.43581641 9.50235293 59.241659 15.99511356 60.49682617 22.21606445 C60.73673782 23.37447845 60.97664948 24.53289246 61.22383118 25.72640991 C61.72774822 28.16810631 62.22759715 30.61064538 62.72363281 33.05395508 C63.48419661 36.79751887 64.25800052 40.53815972 65.03393555 44.27856445 C65.52234561 46.6534042 66.01000177 49.02839915 66.49682617 51.40356445 C66.72802658 52.52340729 66.95922699 53.64325012 67.19743347 54.79702759 C67.40797867 55.83845917 67.61852386 56.87989075 67.83544922 57.95288086 C68.11499702 59.32472031 68.11499702 59.32472031 68.40019226 60.72427368 C68.79760742 63.17700195 68.79760742 63.17700195 68.79760742 67.17700195 C70.35227486 67.17423657 70.35227486 67.17423657 71.93834972 67.17141533 C97.14260292 67.12704117 122.34685107 67.09416228 147.55113506 67.07337761 C159.73967056 67.06305947 171.92818027 67.04898886 184.11669922 67.02612305 C194.73863565 67.00620564 205.36055342 66.99328943 215.982508 66.98882496 C221.60815575 66.98621479 227.23375008 66.98006855 232.85938072 66.96554184 C238.15259956 66.95198401 243.44574288 66.94777568 248.73897743 66.95078659 C250.68323807 66.95023562 252.62750119 66.9462475 254.57174683 66.938591 C257.22380232 66.92865797 259.87557172 66.93102711 262.52763367 66.93649292 C263.29904102 66.93066724 264.07044836 66.92484155 264.86523169 66.91883934 C270.1847812 66.94852393 273.83567833 67.65105711 278.04760742 70.92700195 C280.68134634 74.31323771 280.97928401 77.62713946 280.4848938 81.84472656 C280.27887543 82.74715088 280.07285706 83.6495752 279.8605957 84.5793457 C279.62898239 85.61872284 279.39736908 86.65809998 279.15873718 87.72897339 C278.76728264 89.40481003 278.76728264 89.40481003 278.36791992 91.11450195 C278.10215652 92.29174835 277.83639313 93.46899475 277.56257629 94.68191528 C276.84257275 97.85970654 276.11263314 101.0349938 275.37730026 104.20926666 C274.61806083 107.49496217 273.86993332 110.78318887 273.12011719 114.07104492 C271.63329008 120.58055556 270.13019539 127.08621247 268.62469482 133.59143066 C267.63972007 137.86147177 266.6680424 142.13444288 265.69854736 146.40802002 C264.90189131 149.91153544 264.09590613 153.41283945 263.28607178 156.91333008 C262.92260012 158.48913896 262.56206116 160.06562755 262.20465088 161.64282227 C257.34587971 183.01426084 257.34587971 183.01426084 247.79760742 189.17700195 C239.96236795 192.60061662 232.04561659 192.61872683 223.62719727 192.609375 C222.22671656 192.61840949 220.82624373 192.62874081 219.42578125 192.64025879 C215.65374508 192.66765719 211.88185963 192.67708973 208.10973692 192.68311286 C204.15656366 192.6925416 200.20350103 192.71874836 196.25039673 192.74311829 C188.77798278 192.78666386 181.30559044 192.81528395 173.83308852 192.83844167 C165.32025799 192.86555765 156.80753942 192.90946502 148.29478908 192.95473039 C130.79578631 193.04740546 113.29675932 193.11916434 95.79760742 193.17700195 C96.01416992 194.19020508 96.01416992 194.19020508 96.23510742 195.22387695 C96.42073242 196.1159082 96.60635742 197.00793945 96.79760742 197.92700195 C96.98323242 198.8087207 97.16885742 199.69043945 97.36010742 200.59887695 C97.79760742 203.17700195 97.79760742 203.17700195 97.79760742 207.17700195 C98.41253587 207.17515837 99.02746431 207.17331478 99.66102695 207.17141533 C114.68764153 207.12706832 129.71423575 207.09406423 144.74089909 207.07337761 C152.00795417 207.06310546 159.27496532 207.04912373 166.54199219 207.02612305 C172.88274828 207.0060638 179.22347252 206.99325608 185.56425947 206.98882496 C188.91548384 206.98623857 192.26654564 206.97916403 195.61775398 206.96554184 C236.42189925 206.80637876 236.42189925 206.80637876 247.04370117 216.15356445 C253.96266483 223.33913038 257.95249674 232.10919625 257.79760742 242.17700195 C256.85769089 251.44602498 253.86008099 258.95529904 246.79760742 265.17700195 C245.86948242 266.04325195 244.94135742 266.90950195 243.98510742 267.80200195 C235.84330167 273.86844545 227.7188049 274.12849611 217.79760742 273.17700195 C214.42375891 272.30902058 211.73644498 271.02823821 208.79760742 269.17700195 C208.10151367 268.76450195 207.40541992 268.35200195 206.68823242 267.92700195 C199.94985372 263.46852582 196.0173517 257.60960457 193.87963867 249.84106445 C192.23518282 240.81150688 193.34100471 237.0034128 195.79760742 227.17700195 C174.67760742 227.17700195 153.55760742 227.17700195 131.79760742 227.17700195 C132.78760742 230.14700195 133.77760742 233.11700195 134.79760742 236.17700195 C135.6091592 245.78036467 133.27397439 254.18390103 127.66870117 262.06762695 C122.07685377 268.37158853 114.92676095 272.65436309 106.50073242 273.51293945 C95.06004523 273.64235899 87.20269986 271.47994756 78.77807617 263.5324707 C72.4765703 256.03778029 70.38351701 247.04873838 70.44213867 237.4934082 C71.03712889 231.9423456 73.09854438 227.03531544 75.79760742 222.17700195 C76.3338826 221.74840881 76.87015778 221.31981567 77.42268372 220.87823486 C79.07364556 219.20575857 79.07364556 219.20575857 78.76445007 216.58685303 C78.57260635 215.55538147 78.38076263 214.52390991 78.18310547 213.46118164 C77.97189056 212.29373413 77.76067566 211.12628662 77.5430603 209.92346191 C77.29706085 208.68713013 77.0510614 207.45079834 76.79760742 206.17700195 C76.5637735 204.97644165 76.32993958 203.77588135 76.08901978 202.53894043 C75.29435893 198.56372634 74.46587703 194.59673914 73.62963867 190.63012695 C73.31441692 189.12183326 72.99953098 187.61346935 72.68495178 186.1050415 C72.01348983 182.88815678 71.34004802 179.67169589 70.66497803 176.45556641 C69.04245878 168.72478518 67.43053199 160.99179144 65.81746674 153.2590332 C65.25938299 150.58417135 64.70090282 147.90939247 64.14239502 145.23461914 C60.27875668 126.7237039 56.4714795 108.2012995 52.67260742 89.67700195 C52.36455826 88.1750884 52.05650373 86.67317595 51.7484436 85.17126465 C51.59896302 84.44245213 51.44948244 83.7136396 51.29547215 82.96274185 C50.99829303 81.51392841 50.7010694 80.06512411 50.40380001 78.61632919 C49.6900092 75.13738367 48.9768825 71.65830539 48.2653656 68.17889404 C46.87591881 61.39006856 45.46985657 54.60521472 44.03686523 47.82543945 C43.75314099 46.47703626 43.46953889 45.12860736 43.18606567 43.78015137 C42.65518819 41.2596467 42.12032909 38.73997612 41.58078003 36.22131348 C41.22815598 34.54325623 41.22815598 34.54325623 40.8684082 32.83129883 C40.55699387 31.36799133 40.55699387 31.36799133 40.23928833 29.87512207 C39.81021455 27.25401577 39.71498007 24.82725622 39.79760742 22.17700195 C39.23241898 22.18366379 38.66723053 22.19032562 38.08491516 22.19718933 C32.19631648 22.26361919 26.30782446 22.30883427 20.41894531 22.34179688 C18.22196122 22.35687247 16.02500716 22.37733621 13.828125 22.40332031 C10.66813742 22.43975698 7.50854818 22.45674079 4.34838867 22.4699707 C2.87780754 22.49319649 2.87780754 22.49319649 1.3775177 22.51689148 C-7.24556481 22.51901399 -7.24556481 22.51901399 -11.20239258 19.17700195 C-13.53357069 15.75794072 -14.20239258 13.76656307 -14.20239258 9.61450195 C-13.01055205 5.51755014 -11.49160075 3.83969428 -8.20239258 1.17700195 C-5.19783639 0.17548322 -3.14211102 0.03309802 0 0 Z " fill="#16AEB5" transform="translate(217.202392578125,166.822998046875)"/>
<path d="M0 0 C1.83111328 -0.0309375 1.83111328 -0.0309375 3.69921875 -0.0625 C13.21694707 -0.10321755 22.57646338 0.62481272 30.5625 6.3125 C31.29855469 6.81910156 32.03460937 7.32570312 32.79296875 7.84765625 C33.31503906 8.31042969 33.83710937 8.77320313 34.375 9.25 C34.375 9.91 34.375 10.57 34.375 11.25 C35.035 11.25 35.695 11.25 36.375 11.25 C37.99609375 13.3046875 37.99609375 13.3046875 39.8125 16.125 C40.40933594 17.02992188 41.00617188 17.93484375 41.62109375 18.8671875 C45.52275844 26.39244723 46.82308089 33.69338495 46.76318359 42.09912109 C46.76844055 43.02740219 46.77369751 43.95568329 46.77911377 44.91209412 C46.79220615 47.94938504 46.78361253 50.98614219 46.7734375 54.0234375 C46.77546167 56.15516255 46.77837595 58.28688692 46.78213501 60.41860962 C46.78654411 64.87516913 46.78017418 69.33154757 46.76611328 73.78808594 C46.7490433 79.47248994 46.75885796 85.15646822 46.77683067 90.84085655 C46.78772457 95.24033759 46.78419619 99.63971945 46.7764473 104.03920364 C46.77445968 106.13376543 46.77685344 108.2283365 46.78388596 110.32288742 C46.82724774 126.86843509 46.3425785 141.20298327 34.6796875 154.12890625 C25.21831693 162.90817801 14.52788747 163.4514708 2.25 163.5 C0.96867188 163.520625 -0.31265625 163.54125 -1.6328125 163.5625 C-13.19132008 163.60987093 -22.65945813 161.89904037 -31.625 154.25 C-38.43955628 147.09875616 -43.72466333 138.04676616 -43.76544189 127.96395874 C-43.77115204 127.11466797 -43.77686218 126.2653772 -43.78274536 125.39035034 C-43.78386322 124.46666656 -43.78498108 123.54298279 -43.78613281 122.59130859 C-43.79109772 121.61192322 -43.79606262 120.63253784 -43.80117798 119.62347412 C-43.81578745 116.38178809 -43.82260068 113.14015105 -43.828125 109.8984375 C-43.83387878 107.64124551 -43.83963649 105.38405354 -43.84539795 103.12686157 C-43.8559054 98.39072441 -43.86174931 93.65460421 -43.86523438 88.91845703 C-43.87070929 82.8660427 -43.89471711 76.81385444 -43.92320633 70.76151085 C-43.94188491 66.09619506 -43.94704116 61.43093306 -43.94857025 56.76558304 C-43.95158705 54.53538405 -43.95958252 52.30518578 -43.97275543 50.07502365 C-43.98991999 46.94486367 -43.98790988 43.81524728 -43.98144531 40.68505859 C-43.9906601 39.7735202 -43.99987488 38.86198181 -44.0093689 37.92282104 C-43.93975766 27.09569253 -40.71946249 18.44898958 -33.625 10.25 C-23.6419899 0.93383144 -13.14593196 0.05449091 0 0 Z " fill="#16AEB5" transform="translate(822.625,233.75)"/>
<path d="M0 0 C64.89655172 0 64.89655172 0 76 7 C76 7.66 76 8.32 76 9 C76.66 9 77.32 9 78 9 C79.40234375 10.58203125 79.40234375 10.58203125 80.9375 12.8125 C81.44152344 13.52019531 81.94554687 14.22789062 82.46484375 14.95703125 C87.48316781 24.90429447 87.4710188 34.99849525 87.39111328 45.88818359 C87.37503086 48.49499844 87.39102851 51.10026338 87.41015625 53.70703125 C87.4281822 67.57692357 86.11834275 79.18718479 76.4375 89.8125 C70.65714286 95 70.65714286 95 68 95 C68.25990723 95.62414795 68.51981445 96.2482959 68.78759766 96.89135742 C74.99931523 111.85790798 80.94298838 126.91092188 86.6875 142.0625 C87.00285706 142.89107513 87.31821411 143.71965027 87.64312744 144.57333374 C88.54068384 146.93416999 89.43336541 149.29678365 90.32421875 151.66015625 C90.59557144 152.37356171 90.86692413 153.08696716 91.14649963 153.82199097 C93 158.76930312 93 158.76930312 93 161 C84.75 161 76.5 161 68 161 C64.63465248 153.01478254 61.41780113 144.99634518 58.35546875 136.890625 C57.94081863 135.79780212 57.52616852 134.70497925 57.09895325 133.57904053 C55.7933056 130.13671738 54.4903552 126.69338087 53.1875 123.25 C52.29510117 120.89576536 51.40252463 118.54159808 50.50976562 116.1875 C48.33779158 110.4591093 46.16802256 104.7298873 44 99 C42.72382812 99.01160156 41.44765625 99.02320313 40.1328125 99.03515625 C38.46354313 99.04453417 36.79427217 99.05363437 35.125 99.0625 C34.28324219 99.07087891 33.44148438 99.07925781 32.57421875 99.08789062 C31.76855469 99.09111328 30.96289062 99.09433594 30.1328125 99.09765625 C29.01737061 99.10551147 29.01737061 99.10551147 27.87939453 99.11352539 C26 99 26 99 24 98 C24 118.79 24 139.58 24 161 C16.08 161 8.16 161 0 161 C0 107.87 0 54.74 0 0 Z " fill="#16AEB5" transform="translate(1235,235)"/>
<path d="M0 0 C1.04554047 -0.00637985 2.09108093 -0.0127597 3.16830444 -0.01933289 C4.30981964 -0.02044571 5.45133484 -0.02155853 6.62744141 -0.02270508 C7.79852448 -0.02603348 8.96960754 -0.02936188 10.17617798 -0.03279114 C12.66627611 -0.03786909 15.15638108 -0.0401992 17.64648438 -0.04003906 C21.42801475 -0.04220709 25.20924469 -0.06030229 28.99072266 -0.0793457 C31.41129458 -0.08228327 33.83186788 -0.08426563 36.25244141 -0.08520508 C37.37371429 -0.09239059 38.49498718 -0.09957611 39.65023804 -0.10697937 C52.30101479 -0.0708424 64.25312223 1.48336015 73.91650391 10.33276367 C84.02300861 21.39271221 84.45472524 35.46685091 84.36474609 49.74584961 C84.35397813 51.77512209 84.36473418 53.80351697 84.37744141 55.83276367 C84.35059052 69.49986456 82.80805965 81.99743038 73.15087891 92.35620117 C62.15731091 101.96508313 48.23568647 101.41753397 34.54150391 101.27026367 C29.11712891 101.22901367 23.69275391 101.18776367 18.10400391 101.14526367 C18.10400391 121.27526367 18.10400391 141.40526367 18.10400391 162.14526367 C10.18400391 162.14526367 2.26400391 162.14526367 -5.89599609 162.14526367 C-5.91911316 141.17074345 -5.93697433 120.19622628 -5.94780827 99.2216959 C-5.95297163 89.4835676 -5.96001509 79.74544735 -5.97143555 70.00732422 C-5.98138115 61.52276874 -5.98784923 53.03821909 -5.99008459 44.55365795 C-5.99139191 40.05827707 -5.99447908 35.56291286 -6.00172615 31.06753731 C-6.00848443 26.84135321 -6.01061345 22.61519274 -6.00910378 18.38900375 C-6.00938019 16.83330469 -6.01138645 15.27760489 -6.01520157 13.72191048 C-6.02013583 11.60714433 -6.0189954 9.4924688 -6.01625061 7.37770081 C-6.0171724 6.19135324 -6.0180942 5.00500566 -6.01904392 3.78270817 C-5.8088824 -0.72195777 -4.038638 0.01666239 0 0 Z " fill="#16AEB5" transform="translate(1019.89599609375,233.854736328125)"/>
<path d="M0 0 C7.22456262 -0.07001037 14.44905016 -0.12306696 21.67388535 -0.15543652 C25.02999244 -0.17098523 28.38568932 -0.19368193 31.74169922 -0.22631836 C35.61431901 -0.26301543 39.48661207 -0.27979832 43.359375 -0.29296875 C44.544245 -0.30845261 45.72911499 -0.32393646 46.94989014 -0.33988953 C58.25623947 -0.3421363 69.36561307 1.11138546 78 9 C82.97097824 14.69772945 86.22870986 20.65595857 88 28 C88.17128418 28.70463379 88.34256836 29.40926758 88.51904297 30.13525391 C89.12458855 33.74209241 89.18171977 37.29483337 89.203125 40.94140625 C89.20882507 41.70492905 89.21452515 42.46845184 89.22039795 43.25511169 C89.22981939 44.86968617 89.23637055 46.48427962 89.24023438 48.09887695 C89.24987303 50.53046769 89.28089464 52.9611878 89.3125 55.39257812 C89.40809116 69.2621805 88.12271954 81.10084404 78.40625 91.74609375 C67.48038518 102.07928194 52.99915703 101.14495959 39 101.0625 C34.05 101.041875 29.1 101.02125 24 101 C24 121.13 24 141.26 24 162 C15.75 162 7.5 162 -1 162 C-1.02295339 147.965241 -1.04114089 133.93049526 -1.05181217 119.89572144 C-1.05694397 113.37285646 -1.06385523 106.8500054 -1.07543945 100.32714844 C-1.13331403 66.87043368 -0.87926203 33.44593976 0 0 Z " fill="#16AEB5" transform="translate(899,234)"/>
<path d="M0 0 C7.92 0 15.84 0 24 0 C24 23.1 24 46.2 24 70 C38.19 70 52.38 70 67 70 C67 46.9 67 23.8 67 0 C74.92 0 82.84 0 91 0 C91 53.46 91 106.92 91 162 C83.08 162 75.16 162 67 162 C67 138.9 67 115.8 67 92 C52.81 92 38.62 92 24 92 C24 114.77 24 137.54 24 161 C16.23212582 162.94196855 8.00694143 162 0 162 C0 108.54 0 55.08 0 0 Z " fill="#16AEB5" transform="translate(660,235)"/>
<path d="M0 0 C1.1859375 -0.020625 2.371875 -0.04125 3.59375 -0.0625 C17.13767562 -0.12229658 25.40702321 2.9809924 35.07421875 12.390625 C44.70109385 22.5691325 46.01092134 31.65786567 45.875 45.25 C37.625 45.25 29.375 45.25 20.875 45.25 C20.64713542 41.70182292 20.41927083 38.15364583 20.19140625 34.60546875 C20.00315453 31.25818107 20.00315453 31.25818107 18.875 28.25 C16.45116923 27.08046584 16.45116923 27.08046584 13.875 26.25 C13.215 25.92 12.555 25.59 11.875 25.25 C-1.52745501 23.42885747 -1.52745501 23.42885747 -14.125 27.25 C-18.43817975 31.56317975 -18.35558193 36.51338768 -18.375 42.3125 C-18.49644054 52.17838326 -18.49644054 52.17838326 -15.125 61.25 C-12.11823977 62.4268327 -9.21746894 63.3538944 -6.125 64.25 C-1.92396935 65.61159151 2.26386669 67.01163258 6.44970703 68.41918945 C7.73163035 68.84752675 9.0151733 69.27104745 10.30029297 69.68969727 C23.0623527 73.85421025 35.71383219 79.84313189 42.25 92.3125 C43.0859375 94.09765625 43.0859375 94.09765625 43.875 96.25 C44.23078125 97.19359375 44.5865625 98.1371875 44.953125 99.109375 C46.59642186 105.05703413 46.24379138 111.3189055 46.25 117.4375 C46.27449219 118.68853516 46.29898438 119.93957031 46.32421875 121.22851562 C46.36154893 133.18039332 43.99724508 143.25335055 35.875 152.25 C35.31554687 152.87777344 34.75609375 153.50554687 34.1796875 154.15234375 C26.91505088 161.85676779 18.87110542 165.17213348 8.30078125 165.5859375 C-18.86056293 165.98994676 -18.86056293 165.98994676 -30.12890625 156.29296875 C-41.60815448 144.54414913 -44.28531932 132.12161309 -44.125 116.25 C-35.875 116.25 -27.625 116.25 -19.125 116.25 C-19.021875 118.250625 -18.91875 120.25125 -18.8125 122.3125 C-18.38745882 127.66336093 -17.92239563 131.65427861 -15.125 136.25 C-9.75898321 140.37770522 -4.31527691 140.45487782 2.25 140.5 C2.9925 140.520625 3.735 140.54125 4.5 140.5625 C9.34724325 140.59675614 12.74412016 140.05266184 16.875 137.25 C19.68020616 133.4479438 20.25866416 130.71651008 20.2734375 126.03125 C20.27730469 124.85175781 20.28117188 123.67226563 20.28515625 122.45703125 C20.27355469 121.23371094 20.26195312 120.01039063 20.25 118.75 C20.26160156 117.52667969 20.27320313 116.30335938 20.28515625 115.04296875 C20.28128906 113.86347656 20.27742187 112.68398438 20.2734375 111.46875 C20.26836182 109.8590332 20.26836182 109.8590332 20.26318359 108.21679688 C19.82696078 104.88284743 18.70737702 103.02798303 16.875 100.25 C16.875 99.59 16.875 98.93 16.875 98.25 C15.67746094 97.85425781 14.47992187 97.45851563 13.24609375 97.05078125 C6.79233605 94.89616275 0.36020453 92.68289113 -6.0625 90.4375 C-7.27357422 90.02435547 -8.48464844 89.61121094 -9.73242188 89.18554688 C-22.32033214 84.7623992 -32.98429992 79.45722403 -39.6953125 67.4375 C-45.11842876 56.03346124 -46.33823288 40.99968834 -43 28.6875 C-38.4307517 16.43166577 -31.10665662 8.46094707 -19.67578125 2.4140625 C-13.33253982 -0.48070924 -6.8604134 0.02925549 0 0 Z " fill="#16AEB5" transform="translate(588.125,232.75)"/>
<path d="M0 0 C1.96839844 -0.00472824 1.96839844 -0.00472824 3.9765625 -0.009552 C5.42317742 -0.00776074 6.86979204 -0.00570943 8.31640625 -0.00341797 C9.79557308 -0.00409156 11.2747398 -0.00506204 12.75390625 -0.00631714 C15.86443122 -0.0077952 18.97492757 -0.00563856 22.08544922 -0.00097656 C26.05178651 0.00468112 30.01805555 0.00146779 33.98439026 -0.00454903 C37.04551698 -0.0081858 40.1066279 -0.00700114 43.16775513 -0.00442123 C44.62842822 -0.00375848 46.0891028 -0.00455737 47.54977417 -0.00690079 C49.60743929 -0.00947416 51.66499887 -0.00552004 53.72265625 0 C55.47352539 0.00119339 55.47352539 0.00119339 57.25976562 0.00241089 C61.4802901 0.1504951 65.68161441 0.66302877 69.87890625 1.12939453 C69.87890625 8.71939453 69.87890625 16.30939453 69.87890625 24.12939453 C52.71890625 24.12939453 35.55890625 24.12939453 17.87890625 24.12939453 C17.54890625 39.30939453 17.21890625 54.48939453 16.87890625 70.12939453 C30.07890625 70.12939453 43.27890625 70.12939453 56.87890625 70.12939453 C56.87890625 77.71939453 56.87890625 85.30939453 56.87890625 93.12939453 C43.67890625 93.12939453 30.47890625 93.12939453 16.87890625 93.12939453 C16.87890625 107.97939453 16.87890625 122.82939453 16.87890625 138.12939453 C34.36890625 138.12939453 51.85890625 138.12939453 69.87890625 138.12939453 C69.87890625 146.04939453 69.87890625 153.96939453 69.87890625 162.12939453 C44.46890625 162.12939453 19.05890625 162.12939453 -7.12109375 162.12939453 C-7.16139678 121.79501351 -7.16139678 121.79501351 -7.16992188 104.94775391 C-7.17586529 93.29564984 -7.18286812 81.64355299 -7.1965332 69.99145508 C-7.20647881 61.5068996 -7.21294688 53.02234995 -7.21518224 44.53778881 C-7.21648956 40.04240793 -7.21957673 35.54704372 -7.22682381 31.05166817 C-7.23358208 26.82548407 -7.23571111 22.5993236 -7.23420143 18.37313461 C-7.23447785 16.81743555 -7.23648411 15.26173574 -7.24029922 13.70604134 C-7.24523348 11.59127519 -7.24409305 9.47659966 -7.24134827 7.36183167 C-7.24227006 6.17548409 -7.24319185 4.98913652 -7.24414158 3.76683903 C-7.01402329 -1.16558628 -4.33879446 0.00297353 0 0 Z " fill="#16AEB5" transform="translate(1139.12109375,233.87060546875)"/>
<path d="M0 0 C4.22690849 3.45271683 6.19058077 6.62256849 7 12 C7.15049401 14.96731781 7.15713804 17.93114986 7.16113281 20.90185547 C7.16858017 22.23207733 7.16858017 22.23207733 7.17617798 23.58917236 C7.19075161 26.51518537 7.19759302 29.4411442 7.203125 32.3671875 C7.20887968 34.40593466 7.21463737 36.44468181 7.22039795 38.48342896 C7.23089378 42.755394 7.23674596 47.02734029 7.24023438 51.29931641 C7.2457211 56.76572315 7.26975905 62.23188107 7.29820633 67.69820976 C7.31685319 71.90874959 7.32203937 76.11922966 7.32357025 80.32980728 C7.32659184 82.34478239 7.33460365 84.35975656 7.34775543 86.37469101 C7.36486131 89.19643737 7.36292475 92.01757791 7.35644531 94.83935547 C7.37026749 96.08022415 7.37026749 96.08022415 7.3843689 97.34616089 C7.33638268 104.03680987 5.96266341 108.66304662 1.5625 113.90234375 C-2.99370284 117.332152 -8.55468553 116.68416463 -14 116.5625 C-15.06734375 116.57345703 -16.1346875 116.58441406 -17.234375 116.59570312 C-23.42404485 116.53796367 -27.34046569 116.21283515 -32 112 C-36.43193766 105.27568079 -36.1495476 97.224506 -36.16113281 89.43188477 C-36.16609772 88.61611969 -36.17106262 87.80035461 -36.17617798 86.95986938 C-36.19066861 84.28703948 -36.19757801 81.61426882 -36.203125 78.94140625 C-36.20595238 78.02220839 -36.20877975 77.10301052 -36.21169281 76.15595818 C-36.2266289 71.29561963 -36.23589475 66.43531037 -36.24023438 61.57495117 C-36.24572408 56.57403403 -36.26977869 51.57338844 -36.29820633 46.5725565 C-36.31688665 42.707649 -36.32204108 38.84280641 -36.32357025 34.97785759 C-36.32658294 33.13479051 -36.33456432 31.29172419 -36.34775543 29.44870186 C-36.36493647 26.86476367 -36.36290708 24.28148292 -36.35644531 21.69750977 C-36.3656601 20.94762283 -36.37487488 20.1977359 -36.3843689 19.42512512 C-36.33407684 12.95918552 -35.22697688 6.48148852 -30.8125 1.5625 C-22.20031488 -3.22204729 -9.12346076 -4.03912437 0 0 Z " fill="#FDFDFD" transform="translate(838,258)"/>
<path d="M0 0 C3.37589859 0.07540034 6.75127937 0.15410373 10.12646484 0.25634766 C12.2968678 0.31857279 14.46704683 0.360337 16.63793945 0.40136719 C18.02664765 0.44046229 19.41532183 0.48078883 20.80395508 0.52246094 C22.69537231 0.57128418 22.69537231 0.57128418 24.625 0.62109375 C28.54914391 1.12208313 30.88599817 1.8028624 34.13598633 4.06933594 C36.97356502 8.96676161 37.58342945 13.42133584 37.53442383 18.97949219 C37.53729401 19.71002304 37.54016418 20.44055389 37.54312134 21.19322205 C37.54514976 22.72688581 37.53970598 24.26057616 37.52709961 25.79418945 C37.51100356 28.12933573 37.52700045 30.46275776 37.54614258 32.79785156 C37.54416038 34.29590222 37.54031719 35.79395181 37.53442383 37.29199219 C37.54353287 38.32816429 37.54353287 38.32816429 37.55282593 39.38526917 C37.48639396 44.00533293 36.75612017 47.24355329 34.13598633 51.06933594 C29.62954746 54.15296628 25.92911934 54.42685353 20.55004883 54.36230469 C19.84826508 54.35805984 19.14648132 54.353815 18.4234314 54.34944153 C16.20221073 54.33277193 13.98192845 54.29514466 11.76098633 54.25683594 C10.2466766 54.24177382 8.73235252 54.22808809 7.21801758 54.21582031 C3.52370701 54.18290777 -0.1700616 54.13120852 -3.86401367 54.06933594 C-3.88928015 46.53963941 -3.90684509 39.00995374 -3.91894531 31.48022461 C-3.92398737 28.91641837 -3.93082081 26.35261502 -3.93945312 23.78881836 C-3.95152432 20.11278573 -3.95724309 16.43679096 -3.96166992 12.76074219 C-3.96683121 11.60659317 -3.97199249 10.45244415 -3.97731018 9.26332092 C-3.97738571 8.2022966 -3.97746124 7.14127228 -3.97753906 6.0480957 C-3.97975967 5.10877701 -3.98198029 4.16945831 -3.98426819 3.20167542 C-3.79747479 -0.11052395 -3.36761424 0.08152778 0 0 Z " fill="#FDFDFD" transform="translate(1041.864013671875,256.9306640625)"/>
<path d="M0 0 C7.734375 0.12375 7.734375 0.12375 15.625 0.25 C18.04900146 0.27368652 18.04900146 0.27368652 20.52197266 0.29785156 C22.44855713 0.34377441 22.44855713 0.34377441 24.4140625 0.390625 C25.7232666 0.41157227 27.0324707 0.43251953 28.38134766 0.45410156 C32.61523816 1.09281288 34.76184955 2.22171582 38 5 C40.47880243 9.10168949 40.32194073 13.48081033 40.3359375 18.15234375 C40.3425943 18.93009659 40.3492511 19.70784943 40.35610962 20.50917053 C40.36620337 22.14891201 40.37092766 23.78869429 40.37060547 25.4284668 C40.3749804 27.92631121 40.41133635 30.42238944 40.44921875 32.91992188 C40.45508746 34.51822317 40.45905649 36.11653279 40.4609375 37.71484375 C40.47530853 38.45564682 40.48967957 39.19644989 40.50448608 39.95970154 C40.45942682 45.11611057 39.33680337 48.08334544 36 52 C32.52474764 54.64866995 28.85535912 54.22901079 24.609375 54.1953125 C23.31999023 54.19031738 22.03060547 54.18532227 20.70214844 54.18017578 C18.25083496 54.15286377 18.25083496 54.15286377 15.75 54.125 C10.5525 54.08375 5.355 54.0425 0 54 C0 36.18 0 18.36 0 0 Z " fill="#FDFDFD" transform="translate(923,257)"/>
<path d="M0 0 C4.99125 0.0825 9.9825 0.165 15.125 0.25 C17.47069092 0.27368652 17.47069092 0.27368652 19.86376953 0.29785156 C21.7294458 0.34377441 21.7294458 0.34377441 23.6328125 0.390625 C24.90012207 0.41157227 26.16743164 0.43251953 27.47314453 0.45410156 C31.59679859 1.09237447 33.80056274 2.35711713 37 5 C38.27442926 8.82328777 38.18195319 12.44411918 38.203125 16.4296875 C38.20882507 17.257034 38.21452515 18.08438049 38.22039795 18.9367981 C38.22984023 20.68685632 38.23637887 22.43693227 38.24023438 24.18701172 C38.24993847 26.85806431 38.28096785 29.52834675 38.3125 32.19921875 C38.31903058 33.90103711 38.32428084 35.60286096 38.328125 37.3046875 C38.3404718 38.10067352 38.3528186 38.89665955 38.36553955 39.71676636 C38.34738718 44.2576003 38.09054181 47.41008726 35 51 C31.05905368 53.28072151 27.43446878 53.23348484 22.94921875 53.1953125 C21.14070435 53.18781982 21.14070435 53.18781982 19.2956543 53.18017578 C17.77496338 53.16196777 16.25427246 53.14375977 14.6875 53.125 C9.840625 53.08375 4.99375 53.0425 0 53 C0 35.51 0 18.02 0 0 Z " fill="#FDFDFD" transform="translate(1259,257)"/>
<path d="M0 0 C16.5 0 33 0 50 0 C50.6442328 4.50962957 51.19777279 8.8501554 51.53515625 13.37109375 C51.66567383 15.09682617 51.66567383 15.09682617 51.79882812 16.85742188 C51.9293457 18.62956055 51.9293457 18.62956055 52.0625 20.4375 C52.15337891 21.64599609 52.24425781 22.85449219 52.33789062 24.09960938 C52.56068231 27.06625653 52.78132212 30.03304725 53 33 C48.18601219 34.24551699 43.47653113 34.12689044 38.54296875 34.09765625 C37.64000565 34.0962413 36.73704254 34.09482635 35.80671692 34.09336853 C32.93361037 34.08778823 30.06058284 34.07523934 27.1875 34.0625 C25.23502717 34.05748245 23.28255311 34.05291999 21.33007812 34.04882812 C16.55335515 34.03782525 11.77669096 34.02057418 7 34 C5.61549202 30.04242474 4.53150858 26.16127762 3.7109375 22.05078125 C3.49179687 20.95572266 3.27265625 19.86066406 3.046875 18.73242188 C2.82515625 17.60384766 2.6034375 16.47527344 2.375 15.3125 C2.03082031 13.60223633 2.03082031 13.60223633 1.6796875 11.85742188 C0 3.39399647 0 3.39399647 0 0 Z " fill="#FDFDFD" transform="translate(291,255)"/>
<path d="M0 0 C16.5 0 33 0 50 0 C48.68 11.22 47.36 22.44 46 34 C31.81 34 17.62 34 3 34 C2.18986345 29.94931725 1.73578406 26.26819879 1.46484375 22.16796875 C1.38613037 21.00289795 1.30741699 19.83782715 1.22631836 18.63745117 C1.1310083 17.16896729 1.03569824 15.7004834 0.9375 14.1875 C0.628125 9.505625 0.31875 4.82375 0 0 Z " fill="#FDFDFD" transform="translate(361,255)"/>
<path d="M0 0 C1.2973536 3.89206081 0.51501495 6.04717958 -0.3984375 10.0390625 C-0.55285309 10.72052338 -0.70726868 11.40198425 -0.86636353 12.10409546 C-1.19392551 13.54226544 -1.52535013 14.97956034 -1.86035156 16.41601562 C-2.37423957 18.62173606 -2.87558267 20.83002561 -3.375 23.0390625 C-5.84986224 33.84986224 -5.84986224 33.84986224 -7 35 C-9.8843382 35.08865208 -12.74462158 35.11521296 -15.62890625 35.09765625 C-16.92525246 35.09553383 -16.92525246 35.09553383 -18.24778748 35.09336853 C-21.01939292 35.08775239 -23.7909188 35.07519719 -26.5625 35.0625 C-28.4368478 35.05748708 -30.31119685 35.05292381 -32.18554688 35.04882812 C-36.79039544 35.03777772 -41.39518421 35.0205023 -46 35 C-47.51570986 31.96858028 -46.66014907 29.05997314 -46.22265625 25.8046875 C-46.05773682 24.51030762 -45.89281738 23.21592773 -45.72290039 21.88232422 C-45.50496826 20.22990723 -45.28703613 18.57749023 -45.0625 16.875 C-44.381875 11.63625 -43.70125 6.3975 -43 1 C-28.81 0.67 -14.62 0.34 0 0 Z " fill="#FDFDFD" transform="translate(474,254)"/>
<path d="M0 0 C14.19 0 28.38 0 43 0 C44.32822895 9.96171711 45.33149222 19.97238327 46 30 C32.8 30 19.6 30 6 30 C4.26178432 24.78535296 2.99313232 19.79211143 1.875 14.4375 C1.69324219 13.60025391 1.51148438 12.76300781 1.32421875 11.90039062 C1.15277344 11.08634766 0.98132813 10.27230469 0.8046875 9.43359375 C0.64983887 8.70197021 0.49499023 7.97034668 0.33544922 7.21655273 C0 5 0 5 0 0 Z " fill="#FDFDFD" transform="translate(302,308)"/>
<path d="M0 0 C-0.41151089 6.48129652 -1.47175811 12.62502935 -2.9375 18.9375 C-3.10733398 19.68314209 -3.27716797 20.42878418 -3.45214844 21.19702148 C-4.26866028 24.60965216 -5.03463848 27.05195772 -7 30 C-9.62462244 30.26697888 -12.01065933 30.34832984 -14.6328125 30.29296875 C-15.76056595 30.28660149 -15.76056595 30.28660149 -16.91110229 30.28010559 C-19.31609685 30.2632917 -21.72025809 30.22563624 -24.125 30.1875 C-25.75389416 30.17245659 -27.38280144 30.15876758 -29.01171875 30.14648438 C-33.008393 30.11592876 -37.00326216 30.05721735 -41 30 C-40.01 20.43 -39.02 10.86 -38 1 C-32.74894537 0.85746047 -27.4978887 0.71500143 -22.24682617 0.57275391 C-20.45906444 0.52429979 -18.67130402 0.47579728 -16.88354492 0.42724609 C-14.3195021 0.35762121 -11.75545467 0.28816821 -9.19140625 0.21875 C-8.3872377 0.19687622 -7.58306915 0.17500244 -6.75453186 0.15246582 C-1.11387171 0 -1.11387171 0 0 0 Z " fill="#FDFDFD" transform="translate(462,308)"/>
<path d="M0 0 C-0.11664448 2.5631089 -0.24325988 5.12515467 -0.375 7.6875 C-0.42140625 8.7403418 -0.42140625 8.7403418 -0.46875 9.81445312 C-0.83664167 16.71242191 -1.93151307 23.05483496 -3 30 C-13.89 30 -24.78 30 -36 30 C-37.21339642 20.29282864 -38.36630103 10.73895255 -39 1 C-33.60653108 0.85741796 -28.21305771 0.71500585 -22.81958008 0.57275391 C-20.98331581 0.52429851 -19.14705279 0.475796 -17.31079102 0.42724609 C-14.67724932 0.35762454 -12.04370326 0.28817033 -9.41015625 0.21875 C-8.58411392 0.19687622 -7.75807159 0.17500244 -6.90699768 0.15246582 C-1.11387171 0 -1.11387171 0 0 0 Z " fill="#FDFDFD" transform="translate(404,308)"/>
<path d="M0 0 C3.08193978 1.6281946 5.26420667 3.03009062 7.375 5.8125 C8.60440405 10.11541417 8.62297139 13.69472662 6.6875 17.75 C6.130625 18.4925 5.57375 19.235 5 20 C4.5875 20.5775 4.175 21.155 3.75 21.75 C0.89016665 23.79273811 -1.52620753 23.88420692 -5 24 C-8.84246562 22.84726031 -11.22640744 21.84845636 -13.9375 18.875 C-15.4283087 14.84104705 -15.70147201 11.24737445 -15 7 C-11.26462549 0.72990708 -7.14896407 -0.73954801 0 0 Z " fill="#FDFDFD" transform="translate(446,396)"/>
<path d="M0 0 C3.0159732 1.76148435 5.41370439 3.82740878 7 7 C7.57322775 11.69858808 7.41740893 15.14972255 5.3125 19.4375 C2.82436567 22.19462183 1.61298033 23.24379481 -2 24 C-5.85477083 23.86232961 -8.40733708 23.31608689 -11.8125 21.5 C-14.88599672 17.98743233 -15.81441808 14.63954804 -16 10 C-13.57053508 2.42578585 -8.08747946 -1.87970714 0 0 Z " fill="#FDFDFD" transform="translate(324,396)"/>
</svg>
